<svg width="25" height="35" viewBox="0 0 25 35" fill="none" xmlns="http://www.w3.org/2000/svg">
<path d="M12.2727 9.34275C13.7864 9.34275 15 7.94134 15 6.2285C15 5.63679 14.8636 5.0918 14.6045 4.62466L12.2727 0L9.94091 4.62466C9.68182 5.0918 9.54545 5.63679 9.54545 6.2285C9.54545 7.94134 10.7727 9.34275 12.2727 9.34275ZM18.5455 24.8984L17.0864 23.2323L15.6136 24.8984C13.8409 26.9227 10.7318 26.9383 8.94546 24.8984L7.48636 23.2323L6 24.8984C5.11364 25.9106 3.92727 26.4711 2.67273 26.4711C1.67727 26.4711 0.763636 26.113 0 25.5213V32.6996C0 33.556 0.613636 34.2568 1.36364 34.2568H23.1818C23.9318 34.2568 24.5455 33.556 24.5455 32.6996V25.5213C23.7818 26.113 22.8682 26.4711 21.8727 26.4711C20.6182 26.4711 19.4318 25.9106 18.5455 24.8984ZM20.4545 14.0141H13.6364V10.8999H10.9091V14.0141H4.09091C1.82727 14.0141 0 16.1007 0 18.6855V21.0835C0 22.7652 1.2 24.1354 2.67273 24.1354C3.38182 24.1354 4.06364 23.824 4.55455 23.2479L7.47273 19.9312L10.3773 23.2479C11.3864 24.4002 13.1455 24.4002 14.1545 23.2479L17.0727 19.9312L19.9773 23.2479C20.4818 23.824 21.15 24.1354 21.8591 24.1354C23.3318 24.1354 24.5318 22.7652 24.5318 21.0835V18.6855C24.5455 16.1007 22.7182 14.0141 20.4545 14.0141Z" fill="#3A3B3B"/>
</svg>
