<svg width="29" height="37" viewBox="0 0 29 37" fill="none" xmlns="http://www.w3.org/2000/svg">
<g clip-path="url(#clip0_397_56)">
<path d="M11.879 36.0707C11.879 36.0707 11.8902 36.0781 11.8977 36.0893C13.3233 37.3321 15.4581 37.2985 16.8726 36.0408C16.9062 36.0109 16.9248 35.9923 16.9286 35.9923C20.9107 31.7564 28.2629 22.7769 28.1323 14.3536C28.0054 6.30346 21.2914 -0.115742 13.8384 -4.72829e-05C6.38165 0.11938 -0.123391 6.74758 -0.000232223 14.794C0.134123 23.2173 7.76626 31.9616 11.879 36.0707ZM6.54213 15.1448C5.99351 10.3677 9.91968 6.31839 14.7117 6.71399C18.2609 7.00883 21.1719 9.82656 21.5787 13.3609C22.1311 18.1417 18.2012 22.1985 13.4055 21.7991C9.85997 21.5006 6.94893 18.6828 6.54586 15.1448H6.54213Z" fill="#3A3B3B"/>
</g>
<defs>
<clipPath id="clip0_397_56">
<rect width="28.1325" height="37" fill="white"/>
</clipPath>
</defs>
</svg>
