<svg width="431" height="164" viewBox="0 0 431 164" fill="none" xmlns="http://www.w3.org/2000/svg">
<path d="M239.016 76.0759C239.14 76.066 239.199 76.061 239.317 76.0512C242.122 75.819 243.411 74.1546 243.203 70.4207C242.996 66.6325 241.465 64.8198 238.68 65.0767C238.586 65.0865 238.537 65.0915 238.438 65.0964C235.653 65.3483 234.36 67.3782 234.542 71.0924C234.725 74.8658 236.246 76.303 239.011 76.0709L239.016 76.0759Z" fill="#CCCAE0"/>
<path d="M203.256 85.7119C203.103 85.7169 203.024 85.7218 202.866 85.7267C199.158 85.8552 197.519 87.7073 198.511 91.7918C199.518 95.9505 202.145 97.7582 205.656 97.4371C205.819 97.4223 205.898 97.4174 206.061 97.4026C209.587 97.0815 210.644 95.1158 209.794 91.2782C208.91 87.2726 206.871 85.5934 203.256 85.7218V85.7119Z" fill="#CCCAE0"/>
<path d="M201.202 77.4932C204.175 77.4982 205.567 75.9127 205.73 71.9665C205.893 67.9609 204.698 65.8075 201.834 65.6692C201.736 65.6692 201.686 65.6643 201.587 65.6594C198.723 65.5161 196.975 67.5707 196.704 71.6603C196.427 75.814 197.953 77.4883 200.881 77.4982C201.01 77.4982 201.074 77.4982 201.202 77.4982V77.4932Z" fill="#CCCAE0"/>
<path d="M164.065 71.7244C162.366 68.5486 159.517 66.7063 155.379 66.5187C146.229 66.1038 141.187 76.2683 141.74 83.5188C142.047 87.549 144.392 92.6065 147.498 95.5057C150.446 98.2568 154.1 99.4372 158.188 99.0668C158.302 99.0569 158.361 99.052 158.475 99.0421C167.24 98.3457 167.615 89.3468 166.78 82.9755C166.267 79.0638 165.768 74.9051 164.069 71.7293L164.065 71.7244Z" fill="#CCCAE0"/>
<path d="M241.516 83.7062C241.372 83.7161 241.303 83.721 241.16 83.7309C237.763 83.9581 236.326 85.6571 236.79 89.3071C237.259 93.0212 239.116 94.6758 242.182 94.498C242.325 94.4881 242.394 94.4831 242.538 94.4782C245.619 94.3004 247.056 92.5026 246.878 88.8527C246.695 85.0447 244.829 83.4889 241.516 83.7112V83.7062Z" fill="#CCCAE0"/>
<path d="M304.271 31.2689C294.356 17.2322 277.384 7.97651 258.107 7.97651C247.273 7.97651 237.17 10.9004 228.633 15.953C218.559 6.11944 204.407 0 188.735 0C165.487 0 145.592 13.4588 137.386 32.5333C133.47 31.7085 129.396 31.2689 125.219 31.2689C100.396 31.2689 79.3902 46.6144 72.3587 67.7534C60.5967 71.7491 52.1875 82.3334 52.1875 94.7649C52.1875 110.624 65.8753 123.48 82.7579 123.48C84.9898 123.48 87.1625 123.248 89.2611 122.823C98.9344 130.592 111.491 135.285 125.219 135.285C129.781 135.285 134.215 134.761 138.457 133.783C147.232 151.623 166.445 164 188.739 164C206.57 164 222.431 156.078 232.558 143.785C242.686 156.083 258.546 164 276.377 164C300.163 164 320.442 149.909 328.279 130.133C346.811 121.727 359.595 103.902 359.595 83.2767C359.595 54.5712 334.831 31.2936 304.276 31.2689H304.271ZM140.699 115.82C138.368 116.131 136.724 116.329 134.235 116.6C134.038 116.62 133.825 116.581 133.657 116.477C123.402 110.436 118.602 102.692 115.086 91.9694C114.963 91.594 114.578 91.352 114.163 91.3915C110.938 91.6829 109.072 91.8706 106.316 92.1867C105.788 92.246 105.428 92.7399 105.571 93.219C108.484 103.137 114.192 110.703 123.298 115.988C124.034 116.413 123.742 117.474 122.878 117.509C121.703 117.558 120.696 117.568 119.367 117.558C119.234 117.558 119.101 117.529 118.977 117.474C90.9449 104.618 91.414 72.7369 109.98 52.1609C110.05 52.0819 110.138 52.0177 110.227 51.9683C111.585 51.2472 112.602 50.8077 113.916 50.3977C114.716 50.1508 115.387 50.9904 114.918 51.6473C109.141 59.7275 106.583 68.598 104.781 78.1896C104.677 78.7477 105.191 79.2366 105.788 79.1428C108.376 78.7477 110.203 78.5303 113.318 78.2389C113.718 78.1994 114.039 77.913 114.099 77.5425C115.639 67.6843 117.669 56.8629 124.206 48.7382C124.355 48.5505 124.587 48.4369 124.834 48.4122C127.564 48.1752 129.322 48.1011 132.122 48.0961C132.783 48.0961 133.218 48.758 132.902 49.3062C120.918 69.9216 119.659 99.1557 141.094 114.343C141.721 114.788 141.474 115.716 140.694 115.82H140.699ZM179.604 97.0862C179.422 100.297 179.219 103.043 178.908 105.201C178.602 107.354 177.886 108.846 176.538 109.997C175.19 111.143 173.2 111.854 170.262 112.368C167.324 112.881 163.872 113.113 159.932 112.698C155.992 112.284 151.997 111.256 148.274 109.246C144.55 107.241 141.03 104.391 138.032 100.84C135.035 97.2887 132.892 93.2289 131.722 89.4011C130.552 85.5734 130.216 83.0693 130.675 79.2613C131.203 74.8903 132.823 70.0748 134.67 66.1334C136.467 62.2859 139.134 57.9347 142.22 54.7737C145.039 51.8794 148.229 50.1113 151.621 49.1827C155.014 48.2542 158.278 48.2147 161.468 48.6049C164.657 48.995 167.255 49.7458 169.423 51.1484C171.59 52.5511 173.19 54.4922 174.301 57.2926C175.417 60.0979 176.316 63.659 177.096 67.6151C177.876 71.5713 178.34 75.6657 178.563 78.8909C178.785 82.1161 179.145 84.0719 179.461 87.2428C179.782 90.4136 179.792 93.8808 179.604 97.0961V97.0862ZM220.776 101.319C219.3 103.235 216.915 103.991 212.93 104.519C207.543 105.29 202.171 106.09 196.793 106.925C196.576 106.959 196.354 106.91 196.181 106.786C181.476 96.4935 185.693 68.2473 189.544 54.2946C189.648 53.9291 190.023 53.692 190.428 53.7414C194.867 54.3045 199.316 54.833 203.765 55.2972C207.39 55.6775 210.125 56.5665 212.288 58.9274C213.735 60.4535 214.668 62.7403 215.123 65.9606C215.577 69.1857 215.493 72.5492 214.856 75.4583C214.372 77.6561 213.621 79.1774 212.55 80.2343C212.14 80.6393 212.328 81.3061 212.896 81.4641C213.681 81.6864 214.411 81.963 215.103 82.2988C216.214 82.8421 217.122 83.4101 217.838 84.1213C218.549 84.8375 219.177 85.6672 219.72 86.6254C220.258 87.5836 220.663 88.4874 220.929 89.3073C221.196 90.1272 221.408 90.9322 221.571 91.7076C222.5 96.212 222.253 99.4026 220.776 101.319ZM257.312 89.6283C257.03 94.2414 255.213 97.4567 253.159 99.1853C251.105 100.914 248.853 101.284 245.619 101.363C241.155 101.492 236.657 101.803 232.208 102.233C231.798 102.272 231.398 102.094 231.181 101.763C223.463 89.8061 225.107 70.9786 224.677 57.4556C224.658 56.8975 225.127 56.4332 225.719 56.4134C230.218 56.2702 232.919 56.0381 238.024 55.4898C241.678 55.0997 245.012 55.2824 247.88 57.1296C249.786 58.315 251.209 60.3844 252.033 63.4762C252.858 66.5681 252.947 69.9167 252.404 72.8999C252.018 75.0286 251.347 76.5992 250.414 77.75C249.954 78.313 250.216 79.1132 250.932 79.3305C251.534 79.5132 252.097 79.7453 252.631 80.017C253.653 80.5455 254.482 81.1036 255.07 81.8296C255.658 82.5556 256.122 83.4101 256.457 84.393C256.793 85.3758 257.114 86.3192 257.223 87.1637C257.331 88.0083 257.361 88.8381 257.312 89.6333V89.6283ZM274.436 103.25C274.268 103.759 273.696 104.05 273.143 103.922C270.155 103.22 268.091 102.815 264.348 102.317C263.756 102.238 263.346 101.719 263.435 101.161C265.963 85.6969 265.222 68.5239 261.158 53.3611C261.005 52.7882 261.405 52.2153 262.022 52.1165C265.563 51.5633 267.75 51.2127 271.256 50.6694C271.78 50.5903 272.293 50.8768 272.461 51.3509C277.829 66.8693 279.7 87.4305 274.431 103.25H274.436ZM293.585 110.209C289.497 109.014 285.472 107.562 281.438 106.214C280.865 106.021 280.594 105.423 280.831 104.895C288.099 88.8282 286.114 66.6718 280.312 50.5064C280.105 49.9236 280.505 49.3013 281.152 49.2173C287.314 48.4024 293.467 47.6417 299.689 47.3652C300.108 47.3454 300.508 47.5627 300.686 47.9233C302.878 52.2745 303.861 57.1296 304.419 61.8957C304.488 62.4785 303.999 62.9823 303.377 62.9774C300.844 62.9675 299.165 62.9922 296.094 63.0712C294.514 63.1107 293.951 64.9382 294.227 68.3955C294.509 71.8874 295.338 73.4629 296.854 73.4926C299.733 73.5419 301.293 73.5815 303.698 73.6555C304.261 73.6753 304.705 74.105 304.71 74.6285C304.745 78.6588 304.859 82.768 304.246 86.7637C304.167 87.2823 303.659 87.6428 303.106 87.5885C300.918 87.3761 299.491 87.223 296.849 86.9415C295.338 86.7834 294.459 88.1565 293.822 91.2088C293.166 94.35 293.338 96.0342 294.687 96.2614C297.111 96.6713 298.479 96.9084 300.39 97.185C301.066 97.2838 301.461 97.9506 301.195 98.5432C299.392 102.524 297.536 106.401 294.721 109.863C294.454 110.189 293.995 110.323 293.58 110.199L293.585 110.209ZM327 91.8015C326.21 93.2338 325.212 94.9723 323.894 96.6763C322.576 98.3802 320.917 100.183 318.931 102.035C316.946 103.887 314.897 105.527 312.902 106.954C310.907 108.377 308.913 109.597 307.021 110.59C305.13 111.582 303.629 112.175 302.474 112.368C301.891 112.461 301.437 112.427 301.081 112.244C300.726 112.061 300.489 111.785 300.355 111.429C300.222 111.074 300.118 110.688 300.049 110.278C299.98 109.868 299.926 109.513 299.906 109.231C299.906 109.049 299.906 108.955 299.896 108.767C303.214 104.529 305.777 99.778 307.658 94.8291C307.816 94.4192 308.345 94.2463 308.72 94.5081C308.962 94.676 309.194 94.9081 309.416 95.2094C309.88 95.8367 310.236 96.5133 310.473 97.2344C310.71 97.9555 311.016 98.6025 311.401 99.1656C311.786 99.7286 312.221 99.9854 312.744 99.9509C313.604 99.8965 314.571 99.368 315.618 98.3852C316.66 97.4023 317.648 96.0787 318.433 94.4093C319.662 91.8064 319.203 89.6975 317.139 87.8503C316.507 87.2724 315.949 86.7044 315.47 86.1562C314.991 85.608 314.448 84.798 313.766 83.7756C313.085 82.7532 312.483 81.7852 312.028 80.6146C311.574 79.4441 311.194 77.8883 310.838 75.7596C310.483 73.6308 310.266 71.1021 310.098 68.2523C309.777 62.7304 309.446 57.0012 310.27 51.5534C310.819 47.9233 312.018 46.9108 314.512 47.543C315.598 47.8195 316.892 48.427 318.378 49.4099C319.865 50.3878 321.045 51.3411 321.973 52.1955C322.521 52.7042 322.808 52.9759 323.321 53.4846C323.361 53.5241 323.4 53.5735 323.43 53.6229C326.062 57.9692 327.425 62.8984 328.136 67.8324C328.225 68.4548 327.435 68.84 326.956 68.4004C326.669 68.1387 326.358 67.8176 326.022 67.4324C325.05 66.3112 324.042 65.1654 322.985 64.0047C321.929 62.849 321.05 62.2168 320.378 62.1279C319.657 62.0291 319.144 62.444 318.818 63.3725C318.492 64.301 318.408 65.5901 318.532 67.2002C318.571 67.6941 318.625 68.1485 318.699 68.5684C318.773 68.9882 318.882 69.3932 319.02 69.7833C319.164 70.1735 319.297 70.5143 319.42 70.8156C319.549 71.1119 319.727 71.433 319.954 71.7688C320.181 72.1047 320.378 72.3862 320.541 72.6134C320.709 72.8406 320.941 73.1073 321.242 73.4036C321.544 73.7 321.781 73.9371 321.963 74.105C322.146 74.2778 322.403 74.5248 322.734 74.8458C323.065 75.1669 323.321 75.4089 323.509 75.5719C327.948 79.8886 330.052 86.2599 326.99 91.7965L327 91.8015Z" fill="#CCCAE0"/>
<path d="M416.415 68.8748C423.92 68.8748 430.004 62.7893 430.004 55.2826C430.004 47.7758 423.92 41.6904 416.415 41.6904C408.91 41.6904 402.826 47.7758 402.826 55.2826C402.826 62.7893 408.91 68.8748 416.415 68.8748Z" fill="#CCCAE0"/>
<path d="M391.396 95.5897C395.149 95.5897 398.191 92.547 398.191 88.7936C398.191 85.0403 395.149 81.9976 391.396 81.9976C387.644 81.9976 384.602 85.0403 384.602 88.7936C384.602 92.547 387.644 95.5897 391.396 95.5897Z" fill="#CCCAE0"/>
<path d="M13.589 87.8699C21.094 87.8699 27.1781 81.7845 27.1781 74.2777C27.1781 66.771 21.094 60.6855 13.589 60.6855C6.08402 60.6855 0 66.771 0 74.2777C0 81.7845 6.08402 87.8699 13.589 87.8699Z" fill="#CCCAE0"/>
</svg>
