<svg width="497" height="145" viewBox="0 0 497 145" fill="none" xmlns="http://www.w3.org/2000/svg">
<path d="M57.6183 96.9701C57.632 97.1745 57.5456 97.3739 57.3962 97.5071C53.634 100.892 49.7408 103.634 45.6843 105.601C41.5424 107.609 37.5864 108.801 33.8474 109.028C30.1083 109.255 26.4612 108.754 22.9124 107.444C19.3694 106.132 16.2109 104.08 13.4943 101.27C10.7778 98.4603 8.46983 95.0073 6.60705 90.932C4.74428 86.8567 3.54403 82.4261 3.0476 77.7313C2.53242 72.8442 2.73516 67.9031 3.657 63.0136C4.58508 58.1295 6.10936 53.6513 8.21001 49.633C10.3107 45.6148 12.9974 42.1146 16.2306 39.1526C19.4638 36.1906 22.9935 33.9773 26.7917 32.444C30.5966 30.9219 34.7739 30.2314 39.2711 30.2879C43.6273 30.3421 47.9726 31.1948 52.2744 32.7133C52.5209 32.8024 52.6942 33.0254 52.7177 33.2878C53.2025 39.2974 53.7106 45.3054 54.2246 51.3131C54.2715 51.8379 53.7153 52.2036 53.2527 51.9531C51.3166 50.8978 49.277 50.137 47.1406 49.6818C44.6 49.1481 42.1518 49.0306 39.8043 49.3639C37.4567 49.6971 35.2031 50.4699 33.0505 51.6994C30.9038 52.9285 29.0561 54.5071 27.5368 56.4332C26.0175 58.3594 24.8733 60.7179 24.1205 63.4902C23.3681 66.2684 23.1518 69.257 23.469 72.4151C23.8663 76.3305 24.9244 79.6033 26.6154 82.1649C28.3064 84.7265 30.3657 86.3953 32.783 87.1895C35.2006 87.9895 37.7811 88.1569 40.5102 87.7394C43.2451 87.3215 46.004 86.2098 48.7856 84.4747C51.1619 82.9956 53.3579 81.1884 55.3927 79.0752C55.7931 78.6612 56.4909 78.9195 56.5293 79.4918C56.9311 85.3133 57.2975 91.1314 57.6062 96.965L57.6183 96.9701Z" fill="#CCCAE0"/>
<path d="M104.568 82.8313C101.547 85.0282 98.2213 86.7821 94.4857 88.0238C90.7501 89.2654 87.1898 89.7973 83.8068 89.4726C80.4238 89.1479 77.496 88.0887 75.0835 86.2265C72.6768 84.364 70.498 81.9641 68.5698 79.0136C66.6475 76.0627 65.3055 72.6682 64.6131 68.9017C63.9208 65.1351 63.585 61.2625 63.6336 57.3466C63.6879 53.4303 64.4579 49.6009 65.9684 45.9683C67.479 42.3358 69.4172 39.1321 71.7733 36.3872C74.129 33.6366 77.2402 31.4806 81.0322 29.9418C84.8241 28.4031 88.9827 27.6962 93.4075 27.7224C97.8327 27.7543 101.796 28.5095 105.289 29.8593C108.787 31.2087 111.538 32.9543 113.615 35.0619C115.692 37.1694 117.357 39.5099 118.65 42.0923C119.944 44.6747 120.621 47.3511 120.747 50.1877C120.873 53.0302 120.688 55.8759 120.215 58.7879C119.741 61.6999 118.753 64.5525 117.275 67.4437C115.797 70.335 114.061 73.0617 112.059 75.6596C110.057 78.2576 107.576 80.6353 104.562 82.8317L104.568 82.8313ZM79.1961 60.0581C79.6448 65.1785 80.9391 69.0865 83.4506 71.1122C85.9621 73.1378 89.6612 73.4531 94.4017 72.3259C94.5345 72.2935 94.5979 72.2776 94.7307 72.2452C102.918 70.3005 108.288 64.1978 108.306 55.6321C108.316 51.2318 107.272 47.9875 104.945 45.9143C102.593 43.8193 98.8205 42.9341 93.7036 43.2594C84.9181 43.8128 78.4269 51.2929 79.1903 60.0585L79.1961 60.0581Z" fill="#CCCAE0"/>
<path d="M125.403 76.8712C127.213 61.6917 128.422 46.4762 129.813 31.2543C129.84 30.9475 130.112 30.724 130.412 30.739C136.184 31.0797 139.214 31.3049 144.673 31.7839C144.926 31.8079 145.139 31.999 145.185 32.2482C146.408 39.2055 148.192 46.0548 150.419 52.7572C150.559 53.1819 151.123 53.2849 151.404 52.9317C156.233 46.9063 160.975 40.8047 165.352 34.4399C165.475 34.2616 165.686 34.1712 165.9 34.2038C170.844 34.899 173.354 35.3175 177.947 36.1009C178.309 36.1646 178.516 36.5437 178.374 36.8817C173.265 48.8799 168.193 60.8933 162.987 72.8511C162.896 73.0684 162.67 73.2008 162.435 73.1931C159.723 73.0757 158.459 73.0372 155.758 73.1654C155.36 73.1862 155.064 72.7954 155.191 72.4173C157.033 67.0731 158.803 61.7102 160.537 56.3322C160.726 55.7446 159.964 55.3146 159.562 55.7874C158.001 57.6225 156.331 59.5705 154.548 61.6727C152.041 64.627 150.075 67.0583 148.598 68.8291C147.953 69.6173 147.546 70.1197 147.027 70.7705C146.751 71.1174 146.206 71.0367 146.055 70.6244C145.869 70.1265 145.648 69.543 145.392 68.8738C144.958 67.7355 144.234 65.6018 142.994 62.4117C142.052 59.9935 141.146 57.6784 140.335 55.4743C140.134 54.9246 139.336 55.0074 139.246 55.5883C138.234 62.1147 137.151 68.6282 135.914 75.111C135.871 75.3427 135.684 75.5253 135.452 75.5643C131.892 76.2017 129.815 76.6225 126.07 77.4717C125.689 77.5559 125.339 77.2391 125.384 76.8549L125.403 76.8712Z" fill="#CCCAE0"/>
<path d="M169.207 72.7922C174.902 61.2123 180.541 49.6067 186.199 38.0058C186.328 37.7449 186.612 37.6027 186.897 37.654C191.659 38.5023 194.183 38.9726 199.079 39.9057C200.238 40.1272 201.28 40.3566 202.205 40.5879C203.13 40.8193 204.143 41.1502 205.25 41.5688C206.358 41.9932 207.292 42.4527 208.059 42.9527C208.82 43.4531 209.519 44.0809 210.145 44.8368C210.77 45.5926 211.172 46.4163 211.343 47.3082C211.514 48.2001 211.45 49.2545 211.15 50.4712C210.85 51.688 210.275 52.9995 209.413 54.4064C208.541 55.8317 207.552 57.0888 206.452 58.189C205.347 59.2896 204.244 60.173 203.151 60.8446C202.053 61.5165 200.893 62.0752 199.674 62.5207C198.454 62.9719 197.326 63.2939 196.289 63.4807C195.251 63.6676 194.204 63.7906 193.139 63.8326C192.074 63.8804 191.182 63.8757 190.457 63.8245C189.732 63.7675 189.046 63.6845 188.394 63.5757C186.839 63.3103 185.997 63.1731 184.603 62.9497C184.336 62.9089 184.064 63.0387 183.933 63.2821C181.616 67.4791 180.334 69.7999 177.866 74.2944C177.736 74.532 177.469 74.6672 177.202 74.6264C174.158 74.191 172.425 73.9727 169.733 73.719C169.284 73.6787 169.012 73.1983 169.213 72.7918L169.207 72.7922ZM189.092 50.8875C187.556 53.7064 188.366 55.3767 191.613 55.9452C191.744 55.9658 191.809 55.979 191.939 55.9996C193.619 56.2977 195.061 56.1835 196.269 55.6625C197.478 55.1416 198.494 54.1995 199.3 52.8315C200.939 50.0643 200.073 48.3449 196.729 47.7243C196.592 47.6982 196.527 47.685 196.396 47.6644C194.668 47.3462 193.209 47.4557 192.013 47.9875C190.817 48.5252 189.849 49.4876 189.092 50.8816L189.092 50.8875Z" fill="#CCCAE0"/>
<path d="M201.808 77.6531C208.304 66.741 214.96 55.9356 221.578 45.0974C221.831 44.6815 222.321 44.4669 222.803 44.5578C229.562 45.894 236.326 47.2124 243.103 48.4653C243.893 48.6118 244.298 49.4881 243.911 50.1886C242.665 52.4308 241.81 53.9487 240.5 56.2832C240.254 56.7221 239.742 56.9617 239.248 56.8598C235.8 56.1758 233.838 55.7793 230.204 55.0431C228.444 54.6859 227.079 55.3288 226.103 56.9546C225.116 58.5987 225.482 59.6007 227.214 59.9599C230.385 60.6214 232.223 61.0028 235.043 61.594C235.822 61.7529 236.215 62.63 235.827 63.3188C234.6 65.4952 233.74 67.0077 232.42 69.378C232.169 69.8289 231.645 70.0635 231.139 69.9508C227.84 69.2215 225.952 68.8024 222.494 68.0487C220.66 67.6494 219.238 68.3079 218.2 70.061C217.135 71.8628 217.486 72.9832 219.297 73.3898C222.834 74.1852 224.86 74.6478 228.107 75.3982C228.864 75.5704 229.244 76.4248 228.873 77.1067C227.566 79.4937 226.669 81.1553 225.241 83.8321C224.991 84.3064 224.45 84.5479 223.925 84.4247C216.817 82.6895 209.71 80.9777 202.564 79.3974C201.785 79.2268 201.403 78.3431 201.809 77.6589L201.808 77.6531ZM227.366 39.2072C233.509 37.5696 239.615 35.8054 245.653 33.8228C246.124 33.6681 246.615 33.9872 246.665 34.4824C246.873 36.6213 247.036 38.0007 247.313 40.1174C247.364 40.5304 247.085 40.9187 246.673 40.9873C240.464 42.0839 234.26 43.0861 228.023 44.0261C227.587 44.0905 227.179 43.7777 227.132 43.3408C226.999 42.1413 226.913 41.2848 226.788 40.0379C226.751 39.659 226.991 39.3027 227.36 39.2076L227.366 39.2072Z" fill="#CCCAE0"/>
<path d="M239.73 87.4192C244.214 78.0967 248.833 68.8532 253.494 59.6186C250.447 59.0485 248.771 58.7267 246.048 58.1934C245.543 58.0924 245.276 57.5295 245.522 57.0789C246.921 54.498 247.799 52.8847 249.279 50.1222C249.436 49.8302 249.76 49.6736 250.08 49.7284C258.961 51.2979 267.874 52.742 276.817 53.9261C277.309 53.9929 277.601 54.5012 277.426 54.9588C276.27 57.9282 275.568 59.6999 274.388 62.6709C274.258 63.0023 273.908 63.2017 273.558 63.1431C270.391 62.6279 268.635 62.3349 265.334 61.7583C261.033 71.4556 256.762 81.1686 252.636 90.9422C252.489 91.2865 252.115 91.4758 251.751 91.3829C247.163 90.2355 244.585 89.5811 240.235 88.4882C239.77 88.3727 239.524 87.8495 239.73 87.4192Z" fill="#CCCAE0"/>
<path d="M268.989 94.8558C273.593 81.6127 278.425 68.4656 283.197 55.2816C283.305 54.9751 283.615 54.7843 283.934 54.8215C291.777 55.698 299.611 56.4285 307.48 56.9981C307.91 57.028 308.213 57.4359 308.112 57.8591C307.298 61.3747 306.824 63.4009 306.006 66.8756C305.924 67.2214 305.599 67.4543 305.245 67.4194C301.134 66.9909 298.905 66.7355 294.687 66.2086C292.7 65.9605 291.414 66.821 290.813 68.8029C290.203 70.8089 290.884 71.9599 292.875 72.2489C296.879 72.837 299.023 73.1334 302.869 73.6265C303.283 73.6809 303.562 74.0845 303.466 74.4899C302.656 77.8995 302.176 79.9145 301.344 83.4371C301.257 83.7949 300.909 84.0294 300.547 83.9715C296.49 83.3106 294.276 82.9251 290.102 82.1782C288.256 81.8503 286.416 82.9239 285.867 84.7146C285.184 86.9484 285.938 88.3175 288.156 88.7613C292.74 89.6743 295.171 90.1508 299.632 90.9724C300.024 91.0458 300.284 91.4331 300.193 91.8206C299.348 95.5024 298.856 97.6941 297.977 101.648C297.891 102.029 297.514 102.272 297.133 102.186C287.897 100.135 278.685 98.0015 269.491 95.7725C269.085 95.6765 268.851 95.2464 268.989 94.85L268.989 94.8558Z" fill="#CCCAE0"/>
<path d="M340.646 110.48C340.481 110.456 340.327 110.355 340.235 110.209C339.972 109.781 339.647 109.222 339.261 108.538C338.802 107.73 337.908 106.112 336.607 103.776C335.307 101.441 334.089 99.1934 332.946 97.0174C331.803 94.8415 330.568 92.3431 329.261 89.568C328.338 87.6119 327.541 85.7882 326.858 84.0859C326.639 83.5315 325.825 83.6389 325.741 84.2252C324.66 91.73 323.591 99.234 322.54 106.743C322.492 107.074 322.178 107.295 321.851 107.235C316.433 106.219 313.473 105.637 308.137 104.534C307.828 104.467 307.62 104.164 307.675 103.855C310.562 88.5508 313.592 73.272 316.574 57.9846C316.632 57.705 316.888 57.506 317.171 57.5164C322.645 57.7186 325.658 57.7748 331.324 57.7647C331.612 57.763 331.854 57.9697 331.903 58.2539C332.311 60.8487 332.929 63.5878 333.775 66.4993C334.675 69.595 335.63 72.3819 336.631 74.8842C337.625 77.3869 338.62 79.7194 339.598 81.883C340.576 84.0466 341.401 85.757 342.046 86.9809C342.418 87.7244 342.602 88.1051 342.981 88.8599C343.931 78.6127 344.888 68.371 345.838 58.1238C345.865 57.8345 346.108 57.6071 346.4 57.5934C351.293 57.4239 354.029 57.2817 359.039 56.9342C359.389 56.9108 359.684 57.2019 359.667 57.5492C358.58 75.7423 357.482 93.9303 356.407 112.123C356.389 112.458 356.083 112.708 355.751 112.665C349.81 111.896 346.617 111.429 340.635 110.487L340.646 110.48Z" fill="#CCCAE0"/>
<path d="M408.016 113.879C408.01 114.138 407.868 114.382 407.636 114.509C404.013 116.459 400.392 117.493 396.783 117.653C393.046 117.821 389.631 117.194 386.546 115.881C383.46 114.569 380.597 112.719 377.967 110.42C375.338 108.121 373.158 105.527 371.425 102.693C369.692 99.858 368.382 96.8486 367.477 93.6711C366.572 90.4937 366.204 87.3624 366.345 84.2205C366.495 80.9489 367.141 77.7966 368.276 74.6936C369.411 71.5848 370.904 68.7336 372.767 66.0805C374.625 63.4277 376.852 61.0259 379.457 58.8452C382.062 56.6644 384.862 54.8636 387.884 53.4703C390.905 52.0771 394.214 51.2101 397.855 50.9192C401.327 50.6338 404.84 50.9733 408.409 51.9835C408.72 52.0742 408.939 52.3645 408.932 52.6935C408.85 58.3011 408.763 63.9149 408.675 69.5229C408.666 70.0808 408.048 70.4096 407.577 70.1127C406.022 69.1376 404.391 68.4373 402.684 68.0003C400.577 67.461 398.548 67.3036 396.598 67.5165C394.646 67.7235 392.771 68.2773 390.959 69.1613C389.147 70.0395 387.574 71.1656 386.222 72.5291C384.87 73.8926 383.774 75.5675 382.934 77.5596C382.094 79.5517 381.636 81.7353 381.573 84.1328C381.497 87.112 381.979 89.7546 383.045 92.0825C384.11 94.4103 385.569 96.2249 387.431 97.4845C389.293 98.7442 391.379 99.5899 393.692 99.9687C396.005 100.348 398.443 100.131 401.002 99.2736C403.13 98.562 405.168 97.4575 407.121 95.9657C407.595 95.5996 408.281 95.9408 408.274 96.5396C408.192 102.323 408.111 108.107 408.028 113.884L408.016 113.879Z" fill="#CCCAE0"/>
<path d="M418 115.879C418.346 93.4654 418.768 71.0522 419.161 48.6409C419.164 48.4178 419.321 48.2196 419.546 48.1693C430.075 45.7978 440.556 43.4002 450.762 39.8889C451.083 39.7794 451.416 40.0211 451.409 40.3559C451.306 45.7361 451.203 51.1105 451.094 56.4911C451.091 56.7025 450.95 56.882 450.749 56.9483C445.932 58.5088 443.855 58.9296 438.178 60.184C435.565 60.758 434.228 62.6895 434.133 66.0043C434.035 69.3546 435.241 70.799 437.759 70.3076C442.93 69.2982 445.052 68.9214 449.435 67.7126C449.752 67.6269 450.067 67.8639 450.06 68.1928C449.949 73.5384 449.838 78.884 449.726 84.2296C449.724 84.4585 449.555 84.6517 449.336 84.7016C444.705 85.7158 442.456 86.0366 437.318 86.8267C434.676 87.2325 433.309 89.1602 433.213 92.7156C433.112 96.3769 434.343 98.1071 436.897 97.7893C442.284 97.1174 444.814 96.8012 449.739 95.8846C450.046 95.8288 450.326 96.0624 450.323 96.3734C450.223 102.141 450.128 107.907 450.045 113.674C450.044 113.92 449.853 114.126 449.608 114.155C439.251 115.324 428.939 116.038 418.52 116.373C418.239 116.38 418.007 116.155 418.011 115.873L418 115.879Z" fill="#CCCAE0"/>
<path d="M475.889 111.983C474.352 112.333 472.735 112.441 471.055 112.319C469.375 112.197 467.878 111.927 466.567 111.528C465.261 111.129 464.065 110.693 462.984 110.232C461.903 109.77 461.074 109.386 460.483 109.068C460.343 108.983 460.227 108.915 460.123 108.851C459.805 108.656 459.605 108.311 459.61 107.935C459.647 102.014 459.684 96.0926 459.733 90.1704C459.739 89.6421 460.13 89.1759 460.654 89.1232C461.482 89.0443 462.397 89.1238 463.398 89.3617C464.793 89.6906 466.065 90.1215 467.223 90.6717C468.38 91.216 469.682 91.6566 471.123 91.9766C472.564 92.2965 473.825 92.2883 474.905 91.9519C476.68 91.393 478.056 90.2978 479.044 88.677C480.032 87.0563 480.493 85.0896 480.442 82.8405C480.365 79.326 478.04 77.2878 473.342 76.6817C471.903 76.4789 470.648 76.2228 469.578 75.9191C468.507 75.6154 467.272 75.0353 465.867 74.2084C464.462 73.3757 463.315 72.3674 462.432 71.1771C461.543 69.9872 460.793 68.3363 460.176 66.2247C459.559 64.1132 459.272 61.6628 459.301 58.8511C459.373 51.8773 461.385 45.0493 464.655 38.9583C467.742 33.208 471.905 27.8256 477.206 23.9565C479.281 22.439 481.377 21.3307 483.422 20.6891C485.474 20.0472 486.941 19.8022 487.96 19.9451C488.245 19.9906 488.458 20.0232 488.666 20.0621C489.152 20.1468 489.514 20.5508 489.547 21.0413C489.936 27.5501 490.325 34.053 490.714 40.5617C490.742 40.9822 490.523 41.3899 490.142 41.5679C489.312 41.9579 488.305 42.0723 487.121 41.917C485.629 41.7178 484.076 41.5579 482.465 41.4253C480.855 41.2927 479.445 41.6042 478.261 42.3288C476.982 43.1126 475.944 44.2556 475.153 45.7575C474.362 47.2595 473.965 48.8523 473.979 50.5584C473.985 51.0801 474.027 51.5407 474.119 51.9393C474.204 52.3384 474.363 52.6914 474.582 52.9876C474.801 53.2838 475.012 53.5396 475.219 53.7486C475.427 53.9576 475.721 54.1432 476.107 54.2992C476.493 54.4552 476.83 54.5792 477.118 54.6773C477.406 54.7753 477.809 54.8421 478.335 54.889C478.854 54.9364 479.278 54.9666 479.596 54.9863C479.914 55.0061 480.368 55.0402 480.953 55.089C481.537 55.1379 481.99 55.172 482.314 55.1855C492.243 56.0336 493.713 67.1922 494.442 74.7458C494.669 77.0887 494.596 79.7685 494.402 82.5504C494.207 85.3322 493.734 88.3497 492.954 91.5814C492.173 94.8131 491.101 97.8122 489.735 100.538C488.369 103.263 486.485 105.706 484.081 107.815C481.676 109.924 478.93 111.31 475.879 112.001L475.889 111.983Z" fill="#CCCAE0"/>
</svg>
