<svg width="1440" height="522" viewBox="0 0 1440 522" fill="none" xmlns="http://www.w3.org/2000/svg">
<path d="M901.409 373.988C899.759 362.198 898.289 350.086 897.009 337.863C895.939 350.409 894.979 363.289 893.949 377.914C896.689 376.531 898.489 375.582 901.399 373.988H901.409Z" fill="#CCCAE0"/>
<path d="M590.67 364.883L590.94 364.954C591.29 365.045 591.62 365.095 591.91 365.095C592.49 365.095 593.33 364.944 594.02 363.642C594.84 362.098 595.17 359.584 594.99 356.163C594.81 352.64 594.18 349.794 593.13 347.694C592.14 345.706 590.86 344.515 589.23 344.04L588.96 343.96C588.58 343.849 588.22 343.798 587.9 343.798C587.02 343.798 586.37 344.222 585.85 345.151C585.01 346.624 584.68 349.107 584.86 352.519C585.05 356.072 585.69 358.989 586.76 361.179C587.78 363.248 589.05 364.459 590.66 364.883H590.67Z" fill="#CCCAE0"/>
<path d="M1239.29 24.6219C1021.91 153.768 932.94 310.681 731.62 328.738C548.64 335.683 230.14 138.497 0 178.84V521.373C24.76 507.444 128.26 444.238 174.67 426.665C480.22 310.974 720.53 545.133 909.34 429.734C1002.89 373.261 1131.28 284.842 1183.56 258.609C1264.04 217.64 1374.11 236.625 1439.74 277.353V20.3221C1439.74 20.3221 1354.84 -28.1468 1239.28 24.6219H1239.29ZM538.75 392.338C536.21 393.811 533.52 394.548 530.75 394.548C530.39 394.548 530.02 394.538 529.66 394.508C526.42 394.286 523.28 393.014 520.33 390.743C517.3 388.411 514.73 385.343 512.68 381.608C510.6 377.813 509.01 373.241 507.95 368.012C506.93 362.945 506.53 357.414 506.77 351.57C506.99 346.16 507.72 340.871 508.95 335.864C510.16 330.919 511.73 326.599 513.62 323.036C515.56 319.372 517.72 316.808 520.22 315.193C522.07 313.992 524.03 313.386 526.04 313.386C526.81 313.386 527.59 313.477 528.37 313.659C531.24 314.315 534.08 315.92 536.81 318.433L537.12 318.716L537.14 319.129C537.4 324.247 537.5 326.972 537.67 332.564L537.75 335.289L535.93 333.281C533.89 331.02 531.68 329.627 529.38 329.142C528.9 329.041 528.42 328.991 527.96 328.991C525.27 328.991 522.9 330.787 520.9 334.34C518.36 338.852 516.99 344.949 516.82 352.468C516.64 360.341 517.86 366.841 520.44 371.757C522.91 376.471 526.19 379.065 530.2 379.468C530.52 379.499 530.83 379.519 531.14 379.519C533.16 379.519 535.17 378.842 537.11 377.52L538.61 376.491L538.67 378.318C538.85 383.748 538.96 386.403 539.25 391.409L539.29 392.035L538.75 392.348V392.338ZM572.98 385.181C572.69 388.028 572.1 390.389 571.18 392.388C570.22 394.487 568.73 395.991 566.76 396.859C565.45 397.435 563.9 397.738 562.17 397.738C561.39 397.738 560.55 397.677 559.67 397.556L558.87 397.445C553.62 396.748 549.58 394.205 546.86 389.895C544.04 385.423 542.53 378.903 542.25 369.98C542.12 365.62 542.02 361.25 541.91 356.889C541.61 344.616 541.3 331.928 540.54 319.473L540.46 318.11L541.77 318.423C544.62 319.109 546.04 319.452 548.88 320.169L549.59 320.351L549.64 321.088C550.46 333.281 550.87 345.706 551.27 357.717C551.42 362.188 551.56 366.66 551.73 371.121C551.89 375.088 552.62 378.227 553.9 380.437C555.09 382.496 556.68 383.667 558.74 384L558.88 384.02C559.22 384.081 559.55 384.101 559.86 384.101C561.27 384.101 562.26 383.516 562.98 382.264C563.95 380.579 564.34 377.763 564.14 373.907C563.91 369.193 563.7 364.49 563.49 359.776C562.99 348.34 562.47 336.521 561.59 324.923L561.48 323.5L562.85 323.873C565.6 324.63 566.97 325.014 569.7 325.781L570.37 325.973L570.42 326.679C571.29 338.024 571.84 349.561 572.37 360.735C572.6 365.57 572.83 370.414 573.08 375.249C573.29 379.165 573.26 382.406 572.98 385.171V385.181ZM609.46 394.164C609.21 396.234 608.77 398.111 608.17 399.746C607.52 401.512 606.6 402.835 605.34 403.773C604.39 404.48 603.33 404.843 602.17 404.843C601.72 404.843 601.25 404.793 600.77 404.682C599.71 404.44 598.64 403.935 597.59 403.168C596.55 402.421 595.59 401.492 594.72 400.422C593.85 399.352 593.01 398.131 592.2 396.799C591.38 395.436 590.63 394.003 589.98 392.529C589.34 391.086 588.72 389.602 588.14 388.118C587.78 387.21 587.45 386.312 587.15 385.434C587.45 390.006 587.77 393.983 588.31 399.423L588.44 400.786L587.11 400.523C584.52 399.998 583.22 399.746 580.58 399.252L579.83 399.11L579.77 398.343C578.63 384.495 577.86 370.404 577.12 356.778C576.62 347.633 576.11 338.166 575.48 328.87L575.38 327.436L576.75 327.83C581.32 329.152 583.59 329.829 588.05 331.151C593.15 332.665 596.85 335.43 599.36 339.599C601.85 343.737 603.26 349.521 603.66 357.293C603.8 359.968 603.79 362.451 603.64 364.651C603.49 366.872 603.21 368.739 602.83 370.202C602.44 371.666 601.97 372.968 601.43 374.078C600.85 375.259 600.22 376.137 599.5 376.763C598.84 377.339 598.16 377.813 597.48 378.176C596.74 378.58 596 378.802 595.29 378.853C594.88 378.883 594.5 378.893 594.15 378.893C593.97 378.893 593.79 378.893 593.62 378.883C593.59 378.883 593.56 378.883 593.52 378.883C593.63 379.297 593.79 379.862 593.99 380.558C594.31 381.669 594.65 382.759 594.99 383.778C595.33 384.798 595.76 385.938 596.25 387.16C596.73 388.361 597.22 389.41 597.7 390.299C598.15 391.136 598.66 391.883 599.2 392.519C599.78 393.195 600.18 393.377 600.36 393.418C600.43 393.438 600.5 393.448 600.56 393.448C600.97 393.448 601.32 392.903 601.55 392.449C602.09 391.338 602.43 389.39 602.57 386.655L602.63 385.413L603.82 385.726C605.87 386.261 606.88 386.534 608.9 387.079L609.59 387.271L609.64 387.997C609.77 390.036 609.71 392.115 609.45 394.174L609.46 394.164ZM640.47 402.794C640.28 404.823 639.91 406.65 639.39 408.225C638.83 409.91 637.96 411.202 636.8 412.07C635.98 412.686 635.05 412.999 634.03 412.999C633.54 412.999 633.02 412.928 632.49 412.777C631.51 412.504 630.53 411.979 629.56 411.212C628.61 410.465 627.72 409.547 626.92 408.507C626.12 407.458 625.34 406.277 624.61 404.985C623.86 403.662 623.17 402.28 622.57 400.846C621.98 399.443 621.41 398.01 620.87 396.567C620.64 395.941 620.42 395.325 620.21 394.72C620.5 398.898 620.8 402.451 621.27 407.145L621.42 408.588L620.03 408.225C617.69 407.609 616.5 407.296 614.12 406.69L613.43 406.519L613.37 405.802C612.08 390.521 611.24 374.957 610.44 359.907C610.07 353.013 609.69 345.877 609.27 338.872L609.18 337.439L610.54 337.843C614.7 339.064 616.73 339.66 620.71 340.79C625.29 342.092 628.59 344.666 630.8 348.673C632.99 352.64 634.27 358.353 634.71 366.135C634.86 368.82 634.89 371.303 634.78 373.503C634.67 375.734 634.45 377.601 634.13 379.055C633.81 380.518 633.4 381.82 632.93 382.93C632.43 384.111 631.87 385 631.22 385.625C630.63 386.201 630.01 386.675 629.4 387.049C628.72 387.452 628.03 387.684 627.36 387.735C627.02 387.755 626.7 387.775 626.4 387.775C626.22 387.775 626.05 387.775 625.88 387.765C625.98 388.169 626.13 388.704 626.31 389.37C626.61 390.48 626.93 391.54 627.24 392.519C627.56 393.529 627.96 394.649 628.41 395.83C628.85 396.991 629.3 398.03 629.75 398.898C630.17 399.716 630.63 400.453 631.13 401.078C631.66 401.735 632.01 401.916 632.16 401.957C632.22 401.977 632.27 401.987 632.32 401.987C632.64 401.987 632.95 401.371 633.07 401.099C633.55 400.029 633.83 398.131 633.91 395.436L633.95 394.144L640.45 396.022L640.5 396.718C640.66 398.747 640.64 400.796 640.45 402.815L640.47 402.794ZM644.22 415.048L644.14 414.382C642.18 397.687 641.13 380.629 640.12 364.126C639.77 358.444 639.42 352.771 639.03 347.099L638.94 345.736L640.26 346.049C642.38 346.553 643.42 346.786 645.45 347.22L646.18 347.381L646.24 348.138C646.65 353.609 647.03 359.1 647.41 364.58C648.57 381.426 649.78 398.848 651.93 415.845L652.12 417.369L644.22 415.068V415.048ZM677.69 423.678C676.41 424.314 675.07 424.637 673.71 424.637C672.83 424.637 671.93 424.505 671.02 424.243C668.76 423.587 666.61 422.174 664.44 419.893C662.25 417.591 660.35 414.826 658.65 411.444C656.9 407.972 655.39 403.874 654.15 399.252C652.88 394.508 652.04 389.511 651.65 384.404C651.26 379.307 651.36 374.502 651.93 370.122C652.52 365.59 653.58 361.653 655.07 358.403C656.58 355.143 658.54 352.68 660.91 351.085C662.85 349.783 664.94 349.117 667.1 349.117C667.6 349.117 668.11 349.158 668.61 349.228C671.43 349.632 674.11 350.914 676.55 353.023L676.9 353.326V353.791C676.92 358.837 676.93 361.502 676.98 366.942L677 369.698L675.22 367.608C673.49 365.58 671.57 364.379 669.5 364.015C669.15 363.955 668.81 363.924 668.48 363.924C665.96 363.924 663.88 365.64 662.29 369.011C660.38 373.069 659.62 378.701 660.03 385.757C660.44 392.822 661.81 398.868 664.09 403.703C666.22 408.225 668.63 410.788 671.48 411.535C671.94 411.656 672.4 411.717 672.84 411.717C673.98 411.717 675.09 411.323 676.22 410.496L677.74 409.396L677.8 411.283C677.96 416.269 678.05 418.621 678.24 422.709L678.27 423.375L677.68 423.668L677.69 423.678ZM708.17 355.022C707 372.746 706.42 390.803 705.86 408.265V408.467C705.73 412.535 705.42 416.027 704.94 418.853C704.45 421.73 703.75 424.071 702.79 426.019C701.8 428.018 700.43 429.391 698.71 430.107C697.82 430.471 696.83 430.662 695.77 430.662C694.87 430.662 693.89 430.531 692.85 430.259L692.23 430.097C688.2 429.047 685.28 426.534 683.31 422.416C681.3 418.207 680.26 412.111 680.13 403.784C679.88 385.575 679.84 369.072 680.01 353.326V352.226L681.11 352.327C683.77 352.589 685.09 352.7 687.74 352.912L688.69 352.983L688.66 353.942C688.26 368.86 688.09 385.1 688.11 405.045C688.11 408.992 688.58 411.99 689.54 414.19C690.39 416.158 691.55 417.289 693.08 417.642L693.18 417.662C693.47 417.733 693.74 417.763 693.98 417.763C694.61 417.763 695.55 417.581 696.39 416.027C697.34 414.291 697.86 411.364 697.94 407.357C698.31 391.167 698.74 372.817 699.72 354.659L699.77 353.659L700.76 353.7C703.34 353.811 704.62 353.861 707.19 353.922L708.23 353.952L708.16 355.002L708.17 355.022ZM727.6 423.89C727.33 428.644 727.19 430.895 726.93 434.952L726.86 436.062L725.77 435.881C719.15 434.75 716.01 434.125 709.93 432.812L709.1 432.631L709.52 422.184C710.41 400.19 711.33 377.45 712.84 355.093L712.9 354.144H713.84C714.93 354.154 715.79 354.164 716.61 354.164C717.72 354.164 718.77 354.164 720.23 354.144H721.32L721.24 355.234C719.6 376.753 718.56 397.96 717.47 421.397C721.03 422.002 723.01 422.305 726.74 422.83L727.65 422.961L727.6 423.89ZM756.72 413.554C756.45 418.258 756.01 422.144 755.38 425.414C754.74 428.714 753.87 431.45 752.71 433.761C751.55 436.083 750 437.778 748.09 438.808C746.67 439.575 745.05 439.959 743.28 439.959C742.74 439.959 742.18 439.918 741.61 439.848L740.93 439.767C736.47 439.202 733.43 436.779 731.65 432.378C729.88 428.008 729.32 421.498 729.87 411.889C730.92 393.69 732.14 374.139 733.9 354.487L733.98 353.619L734.85 353.568C737.4 353.437 738.68 353.356 741.22 353.175L742.4 353.094L742.29 354.275C740.45 374.048 739.17 393.973 738.05 412.565C737.78 417.077 738.07 420.397 738.92 422.709C739.92 425.414 741.37 425.848 742.37 425.949L742.39 426.968L742.49 425.959C742.62 425.969 742.75 425.979 742.87 425.979C744.28 425.979 745.41 425.131 746.33 423.405C747.47 421.245 748.19 417.824 748.47 413.221L748.5 412.767C749.64 393.135 750.82 372.847 752.89 352.953L752.97 352.145L753.77 352.054C756.26 351.782 757.5 351.641 759.98 351.328L761.23 351.166L761.1 352.428C759.03 372.615 757.87 393.226 756.76 413.17L756.74 413.554H756.72ZM803.69 344.474C802.17 365.771 801.49 387.462 800.84 408.447C800.53 418.399 800.21 428.694 799.8 438.818L799.76 439.716L798.87 439.787C796.29 439.979 795.04 440.06 792.48 440.181L791.38 440.231L791.43 439.121C791.93 427.685 792.29 416.037 792.64 404.783C792.84 398.444 793.04 391.984 793.27 385.504L793.01 386.796C791.9 392.267 790.92 396.95 790.02 401.109C788.86 406.438 787.61 411.747 786.3 416.895C785.08 421.73 783.59 427.301 781.83 432.025L780.79 434.811L779.94 431.954C777.97 425.363 776.12 417.299 774.44 407.972C772.89 399.403 771.89 392.59 771.26 387.806C770.97 393.407 770.7 398.999 770.43 404.48C769.88 415.896 769.3 427.695 768.57 439.302L768.51 440.282L767.54 440.241C764.81 440.14 763.49 440.08 760.79 439.918L759.78 439.858L759.85 438.838C760.56 428.311 761.17 417.591 761.75 407.235C762.78 388.946 763.85 370.041 765.54 351.469L765.61 350.672L766.39 350.561C769.82 350.066 771.5 349.804 774.93 349.218L776.02 349.036L776.09 350.147C777.28 368.022 779.21 384.041 781.96 398.959C784.59 387.785 786.95 376.43 789.24 365.408C790.55 359.11 791.9 352.599 793.28 346.2L793.42 345.574L794.04 345.433C797.42 344.666 799.07 344.272 802.45 343.424L803.79 343.091L803.69 344.484V344.474ZM851.15 329.304C849.89 338.045 848.7 346.937 847.55 355.547L846.09 366.488C844.91 375.32 843.69 384.444 842.27 393.397C840.89 402.138 839.52 409.658 838.09 416.39C836.56 423.547 835.45 427.867 834.78 430.239C834.16 432.439 833.53 434.468 832.91 436.274L831.99 438.969L831.03 436.295C830.54 434.942 829.99 433.176 829.39 431.036C828.8 428.957 827.8 425.101 826.39 418.54C825.06 412.343 823.79 405.439 822.62 398.01C821.43 390.41 820.29 381.184 819.24 370.586C818.17 359.746 817.55 349.491 817.39 340.104V339.337L818.11 339.115C820.7 338.337 822 337.944 824.58 337.126L825.83 336.733L825.88 338.055C826.82 362.077 828.93 383.223 832.32 402.512C835.18 385.736 837.55 368.699 839.85 352.165C840.81 345.262 841.77 338.358 842.76 331.454L842.84 330.858L843.4 330.646C845.96 329.697 847.24 329.203 849.8 328.204L851.4 327.578L851.15 329.284V329.304ZM861.15 325.165C860.08 350.742 860.28 376.743 860.48 401.886C860.55 410.132 860.61 418.369 860.63 426.615V427.352L859.94 427.584C857.31 428.452 856.02 428.856 853.36 429.653L852.07 430.037V428.684C852.09 420.074 852.07 411.323 852.04 402.865C851.96 378.197 851.88 352.69 853.02 327.588L853.05 326.932L853.65 326.69C856.1 325.71 857.32 325.206 859.77 324.186L861.22 323.581L861.15 325.165ZM878 420.831C875.42 421.911 874.15 422.426 871.54 423.425L870.2 423.94L870.18 422.487C870.09 413.897 869.95 405.166 869.82 396.718C869.53 378.025 869.22 358.716 869.4 339.68C867.4 340.548 866.04 341.123 863.71 342.082L862.3 342.667L862.33 341.123C862.49 333.916 862.61 330.343 862.97 323.439L863 322.814L863.58 322.571C871.63 319.119 875.58 317.313 883.72 313.376L885.23 312.649L885.15 314.335C884.84 321.259 884.75 324.853 884.65 332.12V332.746L884.08 333.018C881.42 334.29 880.03 334.946 877.55 336.076C877.4 355.769 877.79 375.764 878.17 395.103C878.33 403.36 878.49 411.626 878.62 419.893V420.579L878 420.841V420.831ZM914.64 401.533C912.19 403.127 910.98 403.884 908.46 405.398L907.25 406.125L906.97 404.732C906.61 402.966 906.43 402.037 906.05 400.059C905.47 397.243 904.79 395.012 904.09 393.599C903.07 391.792 901.87 390.854 900.56 390.854C900.02 390.854 899.44 391.005 898.81 391.298L898.36 391.54C895.93 392.943 893.96 395.85 892.56 400.17C891.97 401.987 891.39 404.833 890.81 408.891C890.5 411.394 890.35 412.605 890.02 414.907L889.94 415.441L889.46 415.674C886.92 416.895 885.66 417.48 883.05 418.641L881.42 419.368L881.66 417.581C883.97 400.099 885.51 382.224 887 364.944C888.58 346.705 890.21 327.85 892.74 309.379L892.81 308.854L893.28 308.612C896.27 307.088 897.76 306.311 900.75 304.736L902.08 304.03L902.21 305.544C905.39 342.244 909.48 372.403 915.09 400.473L915.22 401.149L914.65 401.523L914.64 401.533ZM933.56 387.715C927.73 392.489 924.59 394.841 918.25 399.141L916.74 400.17L916.7 398.323C916.53 390.945 916.32 383.576 916.12 376.208C915.4 350.328 914.65 323.571 915.56 297.186L915.58 296.621L916.07 296.338C922.52 292.674 925.69 290.797 932.25 286.81L933.89 285.811L933.77 287.739C933.39 293.754 933.26 296.853 933.09 303.101V303.636L932.62 303.919C929.98 305.604 928.66 306.432 926.01 308.057C925.31 308.491 924.31 309.702 923.49 313.043C922.77 315.99 922.41 319.775 922.42 324.287C922.43 330.394 923.06 333.23 923.58 334.542C924.09 335.824 924.52 336.107 924.64 336.107C924.7 336.107 924.8 336.066 924.91 335.996C927.28 334.451 928.43 333.674 930.81 332.059L932.35 331.01L932.37 332.887C932.44 339.508 932.5 342.758 932.63 349.117V349.652L932.21 349.965C929.87 351.63 928.71 352.428 926.34 354.033C925.65 354.497 924.67 355.769 923.97 359.14C923.37 362.017 923.12 365.6 923.25 369.768C923.36 373.362 923.76 376.178 924.43 378.136C924.76 379.085 925.12 379.519 925.33 379.519C925.4 379.519 925.59 379.488 925.94 379.236C928.48 377.399 929.71 376.481 932.17 374.563L933.74 373.342L933.78 375.34C933.88 380.468 933.93 382.799 933.95 386.917V387.402L933.58 387.705L933.56 387.715Z" fill="#CCCAE0"/>
<path d="M623.15 373.968L623.39 374.038C623.69 374.119 623.96 374.169 624.2 374.169C624.72 374.169 625.39 374.008 625.98 372.756C626.7 371.212 626.98 368.699 626.79 365.267C626.6 361.754 626.03 358.938 625.08 356.879C624.21 354.972 623.1 353.851 621.69 353.447L621.52 353.397C621.14 353.286 620.86 353.246 620.61 353.246C620.12 353.246 619.41 353.387 618.79 354.588C618.03 356.062 617.74 358.504 617.91 361.855C618.09 365.338 618.68 368.204 619.66 370.364C620.57 372.353 621.74 373.564 623.13 373.968H623.15Z" fill="#CCCAE0"/>
</svg>
