<svg width="1440" height="295" viewBox="0 0 1440 295" fill="none" xmlns="http://www.w3.org/2000/svg">
<path d="M786.53 230.44C790.46 229.69 792.96 229.18 797.08 228.33C797.55 228.23 797.87 227.78 797.82 227.3C796.87 219.02 796.37 213.94 795.45 206.16C795.33 205.19 793.98 205.03 793.65 205.95C790.67 214.32 788.67 219.92 785.48 229.22C785.25 229.89 785.84 230.57 786.54 230.43L786.53 230.44Z" fill="#CCCAE0"/>
<path d="M653.7 199.31C653.38 189.67 651.02 184.43 646.89 183.06C646.72 183.01 646.64 182.98 646.48 182.92C644.35 182.21 642.84 182.8 641.93 184.77C641.02 186.74 640.66 190.13 640.84 194.99C641.19 204.83 643.43 210.54 647.49 211.74C647.65 211.79 647.73 211.81 647.9 211.86C650 212.47 651.54 211.71 652.49 209.62C653.44 207.53 653.86 204.08 653.71 199.32L653.7 199.31Z" fill="#CCCAE0"/>
<path d="M1396.22 90.03C1396.22 90.03 1396.16 90.03 1396.13 90.03C1350.42 86.88 1343.03 65.85 1262.2 58.26C1082.69 53.79 871.46 155.54 763.23 158.6C552.6 153.07 559.89 9.65 345.31 0C210.44 0 71.94 85.78 0 53.68V224.28C33.88 227.03 155.18 112.15 245.29 111.46C341.6 110.77 463.98 210.08 557.53 266.03C746.34 380.36 956.65 111.37 1262.2 225.99C1307.51 242.99 1379.97 266.46 1403.25 266.55C1430.77 266.66 1440 258.38 1440 257.98V80.2C1440 79.64 1408.89 89.87 1396.22 90.02V90.03ZM615.18 266.67C610.51 265.15 607.77 264.06 602.9 261.48C602.64 261.34 602.46 261.07 602.45 260.78C600.92 229.83 602.34 198.79 602.36 167.82C602.36 167.51 602.18 167.23 601.91 167.08C598.92 165.49 597.26 164.54 594.37 162.74C594.12 162.59 593.97 162.31 593.98 162.02C594.1 151.72 594.09 146.34 593.7 137.6C593.67 136.95 594.36 136.53 594.93 136.85C603.53 141.67 612.42 145.8 621.39 149.89C621.66 150.01 621.84 150.28 621.87 150.57C622.78 159.89 623.08 165.31 623.46 175.57C623.48 176.16 622.88 176.59 622.33 176.37C619.76 175.37 618.07 174.68 615.56 173.6C615.01 173.36 614.39 173.77 614.4 174.37C614.95 204.84 614.16 235.41 616.25 265.83C616.29 266.41 615.73 266.85 615.17 266.67H615.18ZM671.76 260C670.88 266.02 669.5 270.49 667.57 273.52C665.64 276.54 662.78 278.18 660.48 277.51C653.28 275.4 649.59 266.09 646.62 257.56C646.3 256.65 644.96 256.93 645.02 257.88C645.32 263.07 645.63 266.95 646.2 272.57C646.26 273.12 645.76 273.58 645.21 273.47C640.84 272.59 638.22 272.15 633.65 271.26C633.28 271.19 633 270.88 632.97 270.51C629.97 231.71 631.12 192.75 627.86 153.96C627.81 153.34 628.43 152.89 629 153.13C634.41 155.37 637.6 156.6 643.68 158.83C644.93 159.29 646.09 159.78 647.17 160.3C648.25 160.82 649.53 161.61 651.03 162.66C652.53 163.71 653.9 164.89 655.14 166.21C656.38 167.53 657.67 169.24 658.99 171.36C660.31 173.48 661.46 175.86 662.41 178.53C663.36 181.2 664.18 184.46 664.84 188.35C665.5 192.24 665.9 196.56 666.03 201.36C666.15 205.89 666.03 210.06 665.68 213.85C665.33 217.63 664.86 220.79 664.26 223.31C663.66 225.82 662.92 228.03 662.05 229.93C661.18 231.83 660.33 233.28 659.5 234.28C658.67 235.29 657.77 236.11 656.78 236.75C655.8 237.39 654.97 237.8 654.3 237.98C653.63 238.16 652.97 238.26 652.3 238.27C652.91 241.15 653.55 243.67 654.24 245.83C654.92 247.99 655.6 249.69 656.25 250.93C656.9 252.17 657.54 253.09 658.14 253.69C658.75 254.3 659.3 254.44 659.8 254.13C660.3 253.82 660.73 253.2 661.1 252.25C661.47 251.31 661.74 249.93 661.92 248.1C662.08 246.51 662.17 244.67 662.19 242.56C662.19 242.05 662.65 241.66 663.16 241.75C666.53 242.33 668.59 242.64 672.07 243.07C672.48 243.12 672.8 243.47 672.81 243.89C672.89 249.43 672.53 254.82 671.78 260.02L671.76 260ZM710.24 275.38C709.82 275.44 709.42 275.17 709.32 274.76C708.63 272 708.25 270.35 707.56 267.2C706.93 264.47 706.26 262.43 705.52 261.16C703.8 258.22 701.37 256.66 698.26 256.59C698.02 256.59 697.9 256.59 697.66 256.6C694.5 256.81 692.12 258.35 690.56 261.29C689.77 262.88 689.17 265.09 688.79 267.88C688.29 271.51 688.05 273.41 687.68 276.69C687.63 277.1 687.29 277.42 686.88 277.43C682.28 277.58 679.65 277.59 675.15 277.42C674.67 277.4 674.3 276.98 674.35 276.5C677.98 242.02 684.84 208.08 689.67 173.78C689.74 173.3 690.21 172.98 690.69 173.1C695.99 174.4 699.01 175.1 704.51 176.26C704.82 176.33 705.08 176.57 705.15 176.88C712.78 208.41 715.33 240.92 723.08 272.39C723.19 272.85 722.89 273.31 722.43 273.4C717.68 274.29 714.95 274.74 710.22 275.39L710.24 275.38ZM750.03 254.04C747.72 259.73 746.02 263.98 744.77 266.86C744.26 267.99 743.93 268.75 743.55 269.62C743.28 270.24 742.41 270.29 742.08 269.7C741.75 269.11 741.36 268.4 740.93 267.57C740.1 265.98 738.55 262.56 736.42 256.71C734.29 250.86 732.39 244.38 730.65 237.43C728.91 230.48 727.13 221.42 725.07 210.52C723.17 200.47 721.38 190.36 719.39 180.31C719.28 179.74 719.77 179.24 720.35 179.34C725.06 180.17 727.85 180.62 732.76 181.34C733.11 181.39 733.4 181.66 733.46 182C736.72 198.7 739.28 215.66 743.68 232.13C743.89 232.9 744.97 232.96 745.26 232.22C751.25 216.94 756.77 201.24 760.17 185.16C760.26 184.76 760.63 184.48 761.04 184.51C765.93 184.89 768.73 185.06 773.52 185.26C774.04 185.28 774.42 185.76 774.3 186.27C772.6 193.64 770.08 201.81 767.03 210.51C763.85 219.59 760.71 227.88 757.83 234.9C754.95 241.93 752.35 248.35 750.04 254.04H750.03ZM801.61 251.83C801.16 251.97 800.68 251.71 800.55 251.25C800.14 249.71 799.89 248.66 799.47 246.8C799.04 245.06 798.51 243.83 797.83 243.13C796.26 241.53 793.84 241.06 790.55 241.8C790.3 241.86 790.17 241.9 789.92 241.96C786.56 242.91 783.9 244.61 781.97 247.1C780.98 248.43 780.14 250.16 779.46 252.25C778.56 255.01 778.11 256.45 777.33 259.01C777.25 259.27 777.03 259.49 776.77 259.57C771.77 261.08 768.95 261.92 764.29 263.26C763.67 263.44 763.08 262.86 763.26 262.23C770.63 236.47 779.99 211.45 788.75 186.14C788.86 185.81 789.19 185.59 789.54 185.59C795.03 185.59 798.04 185.51 803.4 185.26C803.8 185.24 804.17 185.52 804.26 185.91C808.65 205.97 809.42 226.92 815.37 246.6C815.5 247.03 815.26 247.49 814.83 247.62C809.65 249.26 806.74 250.2 801.62 251.82L801.61 251.83ZM861.13 214.29C861.13 215.53 861.09 216.69 861.02 217.78C860.95 218.87 860.76 220.21 860.45 221.8C860.14 223.39 859.73 224.85 859.22 226.19C858.7 227.53 857.95 228.96 856.97 230.48C855.99 232 854.81 233.37 853.44 234.6C852.07 235.83 850.32 237.01 848.2 238.16C846.08 239.31 843.69 240.27 841.04 241.06C840.65 241.18 840.46 241.23 840.08 241.35C837.49 242.13 835.14 242.58 833.05 242.67C830.96 242.77 829.24 242.6 827.88 242.16C826.52 241.72 825.36 241 824.4 240C823.44 239 822.73 237.93 822.27 236.81C821.81 235.68 821.48 234.36 821.29 232.84C821.1 231.32 821.02 229.98 821.05 228.83C821.07 227.68 821.15 226.44 821.28 225.12C822.69 211.43 824.38 197.74 824.68 183.97C824.68 183.57 824.99 183.23 825.39 183.17C829.35 182.59 831.67 182.2 835.63 181.44C836.14 181.34 836.61 181.73 836.62 182.24C836.82 195.34 835.65 208.42 834.72 221.48C834.57 223.81 834.96 225.36 835.89 226.14C836.82 226.91 838.32 226.99 840.4 226.41C840.55 226.37 840.62 226.35 840.77 226.3C842.87 225.7 844.45 224.74 845.48 223.4C846.51 222.06 847.05 220.3 847.12 218.08C847.64 205.25 848.4 192.4 847.75 179.56C847.73 179.16 848 178.81 848.39 178.72C852.66 177.73 855.17 177.1 859.6 175.94C860.1 175.81 860.6 176.16 860.64 176.68C861.64 189.18 861.28 201.75 861.14 214.27L861.13 214.29ZM905.15 223.52C900.75 217.75 898.47 214.62 894.6 209.19C894.24 208.69 893.48 208.74 893.19 209.28C889.33 216.66 887.28 220.7 883.86 227.87C883.75 228.1 883.53 228.27 883.29 228.33C876.98 229.75 873.46 230.6 867.63 232.11C866.94 232.29 866.35 231.57 866.67 230.94C872.37 219.53 878.32 208.24 884.31 196.98C884.46 196.71 884.44 196.38 884.26 196.12C879.25 188.87 874.08 181.61 868.53 174.75C868.16 174.29 868.38 173.6 868.95 173.44C874.72 171.85 878.17 170.85 884.7 168.94C885.03 168.84 885.4 168.96 885.6 169.24C888.46 173.01 890.03 175.3 892.51 179.13C892.87 179.68 893.7 179.62 893.97 179.01C896.34 173.61 897.7 170.44 900.05 164.72C900.14 164.49 900.35 164.3 900.59 164.23C907.75 162.1 911.9 160.85 919.46 158.61C920.17 158.4 920.78 159.15 920.43 159.79C914.75 170.35 908.99 180.87 903.31 191.43C903.16 191.71 903.18 192.06 903.38 192.31C910.18 201.43 916.76 210.71 923.21 220.09C923.56 220.6 923.24 221.31 922.62 221.38C916.18 222.15 912.51 222.7 905.94 223.82C905.64 223.87 905.32 223.75 905.13 223.5L905.15 223.52Z" fill="#CCCAE0"/>
<path d="M693.32 237.23C697.26 237.43 699.76 237.52 703.71 237.62C704.44 237.64 705.03 237.06 704.92 236.42C703.33 226.48 701.75 216.55 700.07 206.62C699.87 205.44 697.95 205.42 697.72 206.6C695.84 216.4 693.98 226.2 692.21 236.01C692.1 236.63 692.62 237.2 693.32 237.23Z" fill="#CCCAE0"/>
</svg>
