<svg width="815" height="179" viewBox="0 0 815 179" fill="none" xmlns="http://www.w3.org/2000/svg">
<path d="M431.695 55.7034C424.449 57.2353 424.163 79.1369 423.824 86.1966C423.453 94.0078 423.506 102.163 424.442 109.997C425.067 115.222 426.342 117.5 428.52 117.034C428.58 117.022 428.613 117.016 428.673 116.999C438.085 111.517 436.61 93.4137 436.916 85.0375C437.182 77.7331 437.753 70.1898 436.504 62.9204C435.667 58.0333 433.256 55.3714 431.695 55.6975V55.7034Z" fill="#CCCAE0"/>
<path d="M357.843 74.9721C358.275 70.9005 360.241 63.9048 356.388 60.8351C356.315 60.8526 356.275 60.8642 356.202 60.8817C355.226 61.1263 354.469 62.3554 353.831 64.7844C353.193 67.2133 352.297 71.6519 351.838 75.9215C351.38 80.162 349.733 86.5053 353.24 89.9478C353.32 89.9362 353.359 89.9304 353.439 89.9187C354.455 89.7556 355.306 88.3518 356.01 85.7947C356.72 83.2376 357.378 79.4048 357.849 74.9721H357.843Z" fill="#CCCAE0"/>
<path d="M406.355 53.4142C405.332 53.4666 404.655 54.6258 404.19 57.0373C403.725 59.4488 403.227 63.5961 403.001 68.3084C402.775 72.9392 401.34 79.6786 405.1 83.4007C405.179 83.3949 405.219 83.389 405.306 83.3832C406.355 83.2784 407.218 81.892 407.916 79.3174C408.613 76.7428 409.258 72.8227 409.45 68.1453C409.643 63.5437 410.885 56.8858 406.548 53.4142C406.468 53.4142 406.428 53.42 406.348 53.4258L406.355 53.4142Z" fill="#CCCAE0"/>
<path d="M386.608 66.1998C386.024 60.6137 383.858 58.1964 382.185 58.7265C373.882 61.3535 374.101 84.0298 373.809 91.7943C373.484 100.264 373.49 109.205 375.124 117.75C376.2 123.389 377.801 125.905 379.9 125.649C379.959 125.643 379.986 125.637 380.046 125.631C389.066 120.15 386.356 98.3066 386.648 90.2274C386.94 82.2474 387.438 74.1391 386.608 66.194V66.1998Z" fill="#CCCAE0"/>
<path d="M411.058 0C355.125 0 292 38.4035 292 87.4548C292 136.506 314.304 178.218 370.243 178.218C426.181 178.218 494.561 136.512 494.561 87.4548C494.561 38.3976 466.99 0 411.058 0ZM340.247 100.974C339.743 103.963 339.238 106.648 338.7 108.978C338.162 111.308 337.677 113.113 337.199 114.401C336.72 115.688 336.216 116.725 335.684 117.523C335.146 118.321 334.681 118.828 334.276 119.066C333.871 119.299 333.473 119.422 333.074 119.428C332.031 119.445 331.513 119.445 330.464 119.445C331.048 127.978 330.729 140.088 338.301 146.641C336.209 146.007 335.14 145.645 332.901 144.807C319.949 136.238 323.921 110.818 325.163 98.5628C326.751 82.9522 327.687 63.7417 338.66 51.0493C340.626 49.6979 341.636 49.0397 343.714 47.7699C344.193 47.4786 344.571 47.2806 344.87 47.1757C345.162 47.0709 345.375 47.1116 345.548 47.3039C345.72 47.4961 345.76 47.898 345.72 48.4863C345.681 49.0746 345.534 49.995 345.441 51.2357C345.348 52.4764 345.262 54.02 345.222 55.9363C345.182 57.8527 345.202 60.34 345.123 63.8058C345.043 67.2774 344.432 72.7353 343.807 76.9525C343.183 81.2163 342.526 85.7248 341.901 89.9944C341.277 94.2641 340.752 97.992 340.247 100.974ZM364.63 136.384C364.464 142.477 364.132 145.989 363.554 148.039C362.976 150.09 361.94 150.789 361.01 150.591C355.105 149.333 353.093 139.547 351.313 133.932C352.01 138.988 352.435 144.451 354.727 149.239C354.827 149.455 354.641 149.682 354.375 149.665C352.867 149.548 351.924 149.449 350.396 149.245C350.151 149.21 349.938 149.082 349.818 148.896C340.885 134.485 343.854 111.989 344.883 96.3436C346.013 79.1776 345.926 58.3304 353.531 42.4284C355.929 41.2693 357.158 40.7218 359.655 39.6849C360.133 39.4869 360.539 39.3762 360.884 39.3529C361.229 39.3296 361.555 39.4869 361.907 39.8072C362.259 40.1334 362.518 40.6693 362.717 41.4033C362.916 42.143 363.076 43.2381 363.308 44.7001C363.534 46.1622 363.76 47.9446 363.992 50.1115C364.225 52.2783 364.491 55.0568 364.61 58.808C364.73 62.5592 364.325 68.0696 363.84 72.6887C363.381 77.0515 362.83 81.5484 362.292 85.8355C361.754 90.1226 361.296 93.868 360.851 96.8503C360.406 99.8385 359.941 102.57 359.436 104.994C358.931 107.417 358.473 109.321 358.041 110.708C357.61 112.094 357.145 113.294 356.653 114.302C356.155 115.315 355.75 116.014 355.418 116.416C355.086 116.818 354.76 117.127 354.428 117.348C354.727 120.354 355.092 122.911 355.477 125.049C355.869 127.186 356.261 128.788 356.626 129.918C356.992 131.048 357.344 131.84 357.663 132.324C357.981 132.807 358.254 132.842 358.48 132.423C358.705 132.003 358.885 131.281 359.024 130.221C359.164 129.161 359.25 127.646 359.29 125.608C359.33 123.686 359.343 121.408 359.33 118.746C359.33 118.478 359.556 118.245 359.861 118.21C361.522 118.03 362.571 117.913 364.344 117.727C364.537 117.709 364.71 117.837 364.71 118.006C364.756 124.128 364.783 130.256 364.617 136.378L364.63 136.384ZM390.806 123.965C390.102 129.47 389.312 135.085 387.784 140.519C386.615 144.684 385.247 147.294 383.825 148.983C382.404 150.672 381.076 151.278 379.721 151.36C378.366 151.441 377.177 150.998 375.928 149.566C374.679 148.133 373.218 145.849 371.943 142.051C370.249 136.995 369.339 131.73 368.529 126.581C367.393 119.346 367.015 111.844 366.948 104.562C366.875 96.9202 367.194 89.1091 367.978 81.3969C368.688 74.4245 370.03 67.5279 370.953 60.5788C371.651 55.3247 372.235 50.0008 373.431 44.8108C374.44 40.4363 375.941 36.8599 377.615 33.9882C379.289 31.1165 380.916 29.4215 382.364 29.0953C383.819 28.7691 384.915 29.8525 386.13 32.2058C387.346 34.5649 388.614 37.8151 389.909 41.9741C391.49 47.0417 392.586 52.2725 393.23 57.41C394.081 64.1261 393.602 71.3024 393.25 78.1874C392.852 85.9054 392.666 93.6699 392.38 101.37C392.101 108.885 391.749 116.509 390.799 123.942L390.806 123.965ZM415.999 66.5085C415.72 71.3839 415.209 76.1662 414.704 80.6455C414.199 85.1248 413.781 88.8003 413.303 91.7128C412.824 94.631 412.293 97.3338 411.682 99.7278C411.071 102.128 410.48 104.044 409.895 105.442C409.317 106.84 408.7 108.005 408.055 108.931C407.411 109.857 406.853 110.481 406.382 110.795C405.917 111.11 405.498 111.308 405.08 111.372C403.984 111.552 403.433 111.64 402.343 111.82C401.971 123.126 402.596 136.116 398.046 146.956C395.987 147.416 394.957 147.626 392.912 148.01C398.763 129.674 395.854 108.523 396.478 89.6682C397.136 69.6423 398.046 50.7406 395.688 30.7437C398.219 30.5166 399.487 30.4408 401.998 30.3593C402.576 30.3418 403.114 30.4059 403.619 30.5399C404.123 30.6797 404.827 31.0291 405.691 31.5767C406.561 32.1301 407.398 32.8756 408.208 33.8076C409.018 34.7396 409.935 36.056 410.931 37.7511C411.928 39.4461 412.877 41.4557 413.694 43.8206C414.518 46.1855 415.295 49.1678 415.793 52.9715C416.291 56.7751 416.278 61.6913 416.006 66.5085H415.999ZM424.567 138.993C421.771 140.997 419.573 142.034 418.131 142.535C416.69 143.036 416.212 142.925 416.212 141.702C416.212 140.479 416.564 138.283 416.916 134.508C417.394 129.417 417.401 124.28 417.387 119.206C417.361 112.17 417.188 105.052 417.221 97.9804C417.255 90.641 417.434 83.29 418.105 75.9681C418.722 69.252 419.712 62.5592 420.303 55.8606C420.748 50.8512 420.861 45.6962 420.675 40.681C420.522 36.5162 420.436 33.3009 420.655 30.9825C420.874 28.6701 421.466 27.6158 422.894 27.8196C424.322 28.0235 426.414 29.439 429.091 31.9611C431.767 34.4833 434.637 37.7977 437.094 41.8343C439.691 46.1039 441.856 51.5153 442.541 56.2625C443.424 62.402 443.53 68.4365 443.344 74.6808C443.152 81.2571 442.939 87.9616 442.627 94.5495C442.308 101.219 441.544 108.121 439.704 114.488C438.17 119.795 436.264 125.241 433.056 130.11C430.372 134.182 427.37 136.995 424.574 139.005L424.567 138.993ZM461.092 103.607C460.826 106.421 460.168 109.461 459.225 112.455C458.282 115.455 456.94 118.496 455.061 121.431C453.174 124.367 450.989 126.755 448.704 128.689C446.419 130.623 444.022 132.085 441.763 133.267C439.505 134.45 437.792 135.166 436.735 135.574C436.204 135.778 435.905 135.871 435.792 135.819C435.679 135.766 435.706 135.603 435.845 135.318C435.992 135.032 436.138 134.689 436.304 134.293C436.47 133.897 446.034 120.744 445.177 108.203C445.622 108.121 446.094 108.558 446.546 109.484C447.004 110.411 447.376 111.447 447.648 112.566C447.921 113.69 448.246 114.674 448.625 115.525C449.003 116.375 449.402 116.731 449.867 116.632C450.624 116.463 451.454 115.56 452.264 113.876C453.075 112.193 453.759 109.91 454.157 106.974C454.775 102.396 453.932 98.5803 451.966 95.5164C451.368 94.5611 450.843 93.6175 450.391 92.703C449.946 91.7885 449.435 90.4196 448.85 88.6664C448.266 86.9131 447.788 85.2472 447.456 82.9521C447.13 80.6572 446.938 77.7214 446.858 74.2381C446.778 70.7607 446.858 67.1492 446.898 63.0544C446.977 55.4762 446.366 47.8223 443.849 40.5878C442.062 35.4561 440.375 33.4115 442.202 34.1629C442.999 34.4891 444.414 35.3512 446.38 36.7201C448.352 38.0889 450.066 39.3646 451.487 40.5354C452.364 41.2635 452.796 41.6304 453.633 42.3585C458.7 49.6513 460.593 55.482 461.437 63.963C460.919 63.8698 460.268 63.0893 459.424 61.6098C458.581 60.1303 457.691 58.6507 456.728 57.1712C455.771 55.6917 454.974 54.8995 454.43 54.7947C453.845 54.684 453.5 55.2141 453.314 56.4256C453.128 57.6372 453.121 59.3206 453.194 61.4991C453.221 62.1631 453.247 62.7864 453.294 63.3689C453.334 63.9514 453.4 64.5164 453.493 65.0465C453.586 65.5765 453.679 66.0483 453.765 66.4619C453.852 66.8755 453.971 67.3182 454.137 67.7842C454.297 68.256 454.436 68.6521 454.563 68.9783C454.682 69.3045 454.855 69.6831 455.081 70.1083C455.306 70.5393 455.486 70.883 455.625 71.1335C455.765 71.3898 455.957 71.7567 456.21 72.2402C456.462 72.7237 456.661 73.0906 456.801 73.3469C461.63 82.5968 461.988 93.9437 461.085 103.613L461.092 103.607ZM330.457 119.439C328.943 128.369 330.723 140.083 338.295 146.636L330.457 119.439Z" fill="#CCCAE0"/>
<path d="M337.511 66.2114C337.438 66.2347 337.404 66.2464 337.338 66.2639C336.428 66.5493 335.664 67.691 334.954 69.9394C334.243 72.1878 333.253 76.4225 332.556 80.2378C331.141 87.9615 331.606 93.2272 333.486 92.9768C333.559 92.9651 333.599 92.9593 333.672 92.9535C334.641 92.8253 335.472 91.5264 336.196 89.1556C336.92 86.7907 337.577 83.255 338.215 79.2301C339.503 71.0869 339.271 65.6523 337.517 66.2056L337.511 66.2114Z" fill="#CCCAE0"/>
<path d="M196.496 93.7801C196.238 92.3546 194.226 92.2668 193.859 93.665C192.603 98.4295 191.551 103.309 190.937 108.14C190.827 109 191.567 109.73 192.428 109.642C194.007 109.472 195.356 109.412 197.478 109.406C198.311 109.406 198.947 108.655 198.815 107.832C197.823 101.571 197.302 98.2266 196.496 93.7746V93.7801Z" fill="#CCCAE0"/>
<path d="M195 68C175.119 68 159 84.1194 159 104C159 123.881 175.119 140 195 140C214.881 140 231 123.881 231 104C231 84.1194 214.881 68 195 68ZM210.423 127.68C207.643 127.719 205.878 127.691 202.391 127.669C202.133 127.669 201.881 127.571 201.711 127.379C201.437 127.077 201.196 126.6 200.801 125.717C200.335 124.736 199.754 123.749 199.063 123.108C197.451 121.638 195.34 120.673 193.613 120.662C193.481 120.662 193.415 120.668 193.289 120.673C191.595 120.821 190.669 121.792 190.186 123.157C189.95 123.892 189.863 124.851 189.972 125.75L190.142 127.148C190.175 127.422 189.961 127.669 189.682 127.669C188.218 127.669 186.496 127.669 180.865 127.642C180.355 127.642 179.977 127.17 180.087 126.671C183.546 110.963 183.327 94.4216 189.122 79.3165C189.238 79.0204 189.495 78.8011 189.797 78.7298C193.394 77.9129 195.833 77.869 199.43 78.5379C199.754 78.5982 200.033 78.8285 200.148 79.141C205.664 94.0707 206.662 110.459 212.051 125.323C212.463 126.463 211.635 127.675 210.423 127.691V127.68Z" fill="#CCCAE0"/>
<path d="M681.791 126.994C676.28 157.427 665.405 174 634.534 174C603.664 174 570 157.919 570 126.994C570 96.0691 587.342 71 618.213 71C649.083 71 690.634 78.1759 681.791 126.994Z" fill="#CCCAE0"/>
<path d="M550.85 85.7C556.29 85.7 560.7 81.29 560.7 75.85C560.7 70.41 556.29 66 550.85 66C545.41 66 541 70.41 541 75.85C541 81.29 545.41 85.7 550.85 85.7Z" fill="#CCCAE0"/>
<path d="M268.5 53C270.985 53 273 50.9853 273 48.5C273 46.0147 270.985 44 268.5 44C266.015 44 264 46.0147 264 48.5C264 50.9853 266.015 53 268.5 53Z" fill="#CCCAE0"/>
<path d="M810.5 136C812.985 136 815 133.985 815 131.5C815 129.015 812.985 127 810.5 127C808.015 127 806 129.015 806 131.5C806 133.985 808.015 136 810.5 136Z" fill="#CCCAE0"/>
<path d="M148.85 161.7C154.29 161.7 158.7 157.29 158.7 151.85C158.7 146.41 154.29 142 148.85 142C143.41 142 139 146.41 139 151.85C139 157.29 143.41 161.7 148.85 161.7Z" fill="#CCCAE0"/>
<path d="M50 136.46C50 148.611 37.35 162 25.3258 162C13.3015 162 0 152.151 0 140C0 127.849 13.2951 118 25.3258 118C37.3565 118 50 124.31 50 136.46Z" fill="#CCCAE0"/>
<path d="M747.8 92.6C757.631 92.6 765.6 84.6307 765.6 74.8C765.6 64.9693 757.631 57 747.8 57C737.969 57 730 64.9693 730 74.8C730 84.6307 737.969 92.6 747.8 92.6Z" fill="#CCCAE0"/>
</svg>
